<svg xmlns="http://www.w3.org/2000/svg" viewBox="0 0 80 80" width="80" height="80" fill="none">
  <defs>
    <linearGradient id="kp-blue-a" x1="19" y1="17" x2="43" y2="42" gradientUnits="userSpaceOnUse">
      <stop stop-color="#88A9B2"/>
      <stop offset=".52" stop-color="#315160"/>
      <stop offset="1" stop-color="#162A32"/>
    </linearGradient>
    <linearGradient id="kp-blue-b" x1="17" y1="58" x2="43" y2="36" gradientUnits="userSpaceOnUse">
      <stop stop-color="#15564F"/>
      <stop offset=".48" stop-color="#249F85"/>
      <stop offset="1" stop-color="#6AF0B0"/>
    </linearGradient>
    <linearGradient id="kp-grass" x1="45" y1="18" x2="69" y2="66" gradientUnits="userSpaceOnUse">
      <stop stop-color="#D7FFAD"/>
      <stop offset=".42" stop-color="#8AF477"/>
      <stop offset="1" stop-color="#26CA68"/>
    </linearGradient>
    <linearGradient id="kp-grass-side" x1="60" y1="20" x2="71" y2="38" gradientUnits="userSpaceOnUse">
      <stop stop-color="#E9FFC8"/>
      <stop offset="1" stop-color="#86EE72"/>
    </linearGradient>
    <linearGradient id="kp-shadow-face" x1="48" y1="48" x2="70" y2="68" gradientUnits="userSpaceOnUse">
      <stop stop-color="#36D774"/>
      <stop offset="1" stop-color="#168D54"/>
    </linearGradient>
    <filter id="kp-shadow" x="7" y="6" width="67" height="70" color-interpolation-filters="sRGB" filterUnits="userSpaceOnUse">
      <feDropShadow dx="0" dy="8" stdDeviation="6" flood-color="#071013" flood-opacity=".28"/>
    </filter>
  </defs>
  <g filter="url(#kp-shadow)">
    <path d="M18 20L42 8V34L18 45V20Z" fill="url(#kp-blue-a)"/>
    <path d="M18 20L42 8V19L30 30L18 25V20Z" fill="#9AB7BE" opacity=".52"/>
    <path d="M18 25L30 30L42 19V34L18 45V25Z" fill="#18313A" opacity=".58"/>
    <path d="M18 50L42 37V70L18 59V50Z" fill="url(#kp-blue-b)"/>
    <path d="M18 50L42 37V47L18 60V50Z" fill="#5CE5A9" opacity=".35"/>
    <path d="M42 8L47 10.5V36.5L42 34V8Z" fill="#2C4C59"/>
    <path d="M42 37L47 39.5V72.5L42 70V37Z" fill="#12323A"/>
    <path d="M47 18H59L70 25V35L56 48L70 58V69L59 63L47 54V48L36.5 41L47 34V18Z" fill="url(#kp-grass)"/>
    <path d="M59 18L70 25V35L59 29V18Z" fill="url(#kp-grass-side)"/>
    <path d="M59 63L70 69V58L59 51V63Z" fill="url(#kp-shadow-face)"/>
    <path d="M47 34L36.5 41L47 48V43.5L43.2 41L47 38.4V34Z" fill="#0F2025"/>
    <path d="M49 43L63 53.5V46.5L55.8 41.1L49 43Z" fill="#0F2025"/>
    <path d="M47 18H59L70 25L56 38L47 34V18Z" fill="#C5FF9F" opacity=".45"/>
    <path d="M47 54L59 63L70 69V64L56.5 54L47 48V54Z" fill="#1FBF62" opacity=".45"/>
  </g>
</svg>
